<svg xmlns="http://www.w3.org/2000/svg" version="1.1" xmlns:xlink="http://www.w3.org/1999/xlink" width="1500" height="183" viewBox="0 0 1500 183"><svg xml:space="preserve" width="1500" height="183" data-version="2" data-id="lg_dK9Lv24orWCiva6RR3" viewBox="0 0 564 183" x="0" y="0"><rect width="100%" height="100%" fill="transparent"></rect><path fill="#facc15" d="M36.965 37.87q-3.75 0-6.92 1.78-3.18 1.77-5.55 4.88-2.38 3.11-3.72 7.33-1.34 4.21-1.34 9.03 0 4.95 2.25 9.13 2.24 4.18 6.22 7.29 3.98 3.11 9.36 4.85 5.39 1.74 11.74 1.74 4.62 0 8.73-.84 4.12-.83 7.19-2.24 3.08-1.4 4.89-3.31 1.8-1.91 1.8-4.05 0-1.67-.6-2.77-.6-1.11-1.37-2.01-.77-.9-1.37-1.81-.6-.9-.6-2.3 0-1.34.66-2.55.67-1.2 1.84-2.14 1.17-.93 2.68-1.47 1.51-.53 3.11-.53 1.94 0 3.65 1 1.7 1 2.94 2.78 1.24 1.77 1.94 4.14.7 2.38.7 5.05 0 5.42-2.87 10.07-2.88 4.65-7.96 7.99-5.09 3.35-12.05 5.26-6.95 1.9-15.11 1.9-9.03 0-16.66-2.44-7.63-2.44-13.15-6.79-5.51-4.35-8.59-10.3-3.08-5.95-3.08-13.05 0-7.75 2.71-14.65 2.71-6.89 7.39-12.04 4.69-5.15 10.94-8.16 6.25-3.01 13.35-3.01 3.14 0 5.78.7 2.64.71 4.58 1.98t3.05 2.98q1.1 1.7 1.1 3.71 0 1.6-.7 3.04t-1.84 2.54q-1.14 1.11-2.64 1.78-1.51.67-3.18.67-1.74 0-2.78-.81-1.03-.8-1.9-1.77-.87-.97-1.88-1.77-1-.81-2.74-.81"></path><rect width="79.47" height="70.44" x="-39.73" y="-35.22" fill="none" rx="0" ry="0" transform="translate(45.96 61.35)"></rect><path fill="#facc15" d="M119.315 46.17q-2.48 0-4.35 1.3-1.87 1.31-3.21 3.62-1.34 2.3-2.21 5.41-.87 3.11-1.4 6.79-.54 3.68-.74 7.7-.2 4.01-.2 8.09 0 5.35.44 10.54.43 5.18.43 9.6 0 2.87-2.14 4.51-2.14 1.64-6.09 1.64-.73 0-1.67-.13-.94-.14-1.77-.54-.84-.4-1.47-1.1-.64-.7-.71-1.91-.6-5.89-1.74-12.04-1.13-6.15-2.84-12.27-1.71-6.13-4.08-12.15-2.37-6.02-5.45-11.77-.54-1-.91-1.87-.36-.87-.36-1.67 0-1.01.9-2.18.9-1.17 2.27-2.17 1.38-1.01 3.01-1.64 1.64-.64 3.18-.64 2.54 0 4.48 3.51 1.94 3.52 3.62 11.21.33 1.34.53 1.87.2.54.54.54.73 0 .93-2.28.81-6.35 2.75-10.93 1.94-4.59 4.85-7.56 2.91-2.98 6.69-4.38 3.77-1.41 8.32-1.41 2.61 0 5.29.47 2.67.47 4.81 1.4 2.15.94 3.48 2.28 1.34 1.34 1.34 3.01 0 1.2-.5 2.84t-1.3 3.15q-.81 1.5-1.84 2.54-1.04 1.03-2.11 1.03-1.21 0-2.34-.7l-2.44-1.5q-1.31-.81-2.75-1.51t-3.24-.7"></path><rect width="56.99" height="71.51" x="-28.5" y="-35.76" fill="none" rx="0" ry="0" transform="translate(107.84 70.11)"></rect><path fill="#facc15" d="M173.565 37.74q3.68 0 7.09 1.14 3.41 1.13 6.02 3.14 2.61 2.01 4.18 4.82 1.57 2.81 1.57 6.22 0 1.4-.63 2.71-.64 1.3-1.71 2.27-1.07.97-2.44 1.54-1.37.57-2.84.57-.14 0-.24.03-.1.04-.23.04-.13.06-.27.06l.27 5.36q.27 9.56 2.71 13.98 2.44 4.41 6.39 4.41 1.4 0 2.51-.27 1.1-.26 2.07-.63.97-.37 1.84-.64.87-.26 1.74-.26 1.54 0 2.71 1.33 1.17 1.34 1.17 3.21 0 1.88-1.44 3.75t-3.78 3.38q-2.34 1.5-5.28 2.44-2.95.94-5.96.94-5.22 0-9.16-4.32-3.95-4.31-5.62-12.67-.4-1.34-1.07-1.34-.8 0-1.41.8-6.62 8.36-14.11 12.54-7.49 4.18-14.78 4.18-3.42 0-6.16-1t-4.65-2.84q-1.9-1.84-2.94-4.48-1.04-2.65-1.04-5.92 0-4.62 2.04-9.7 2.04-5.09 5.52-10.04 3.48-4.95 8.06-9.43 4.58-4.48 9.63-7.89 5.05-3.42 10.27-5.42 5.22-2.01 9.97-2.01m-2.21 23.15q1.21-2.28 2.21-3.32 1-1.03 2.88-1.37 1.47-.2 1.47-.93 0-.54-.4-1.14-1.27-1.74-2.68-3.04-1.4-1.31-3.75-1.31-2.54 0-5.68 1.47-3.15 1.47-6.39 3.92-3.24 2.44-6.35 5.55-3.12 3.11-5.52 6.39-2.41 3.27-3.88 6.49-1.48 3.21-1.48 5.75 0 2.27 1.24 3.54 1.24 1.28 3.38 1.28 5.49 0 11.97-5.82 6.49-5.82 12.98-17.46"></path><rect width="77.4" height="59.54" x="-38.7" y="-29.77" fill="none" rx="0" ry="0" transform="translate(167.28 68.01)"></rect><path fill="#facc15" d="M201.925 59.35q-1.54-.14-2.47-2.01-.94-1.87-.94-4.15 0-1.07.17-2.1.17-1.04.57-1.84.4-.81 1-1.31t1.41-.5q2.47 0 5.68-.17 3.21-.16 6.89-.37 1.87-.2 2.08-2.2.6-9.7 1.67-16.73 1.07-7.02 2.61-11.87 1.54-4.85 3.51-7.86 1.97-3.01 4.38-4.62.74-.53 1.74-1.1 1-.57 1.87-.57 1.67 0 3.51.84 1.84.83 3.42 2.14 1.57 1.3 2.57 2.94 1 1.64 1 3.25 0 .6-.26.97-.27.36-.67.7-2.61 1.94-4.62 4.35-2 2.41-3.41 5.88-1.4 3.48-2.34 8.37-.94 4.88-1.41 11.77 0 1.07.37 1.57t1.37.5q2.61 0 5.26-.4 2.64-.4 5.05-.83 2.4-.44 4.54-.84 2.15-.4 3.82-.4 1.2 0 1.77 1.44.57 1.43.57 3.51 0 1.2-.2 2.47-.2 1.27-.64 2.28-.43 1-1.1 1.7-.67.71-1.67.84l-17.8 1.87q-1.4.2-1.7 1.14-.3.94-.3 2.61 0 14.78.73 25.42.74 10.63 1.64 17.89.9 7.26 1.64 11.44.74 4.18.74 6.06 0 1.4-1.11 2.54-1.1 1.13-2.81 1.94-1.7.8-3.71 1.23-2.01.44-3.75.44-1.67 0-2.97-.57-1.31-.57-1.51-1.91-.67-4.68-1.14-10.26-.46-5.59-.77-12.38-.3-6.79-.43-14.85-.13-8.06-.13-17.69V65.1q0-2.34.13-4.68 0-2.01-2.21-2.01z"></path><rect width="54.12" height="125.63" x="-27.06" y="-62.81" fill="none" rx="0" ry="0" transform="translate(226.07 65.27)"></rect><path fill="#facc15" d="M255.775 18.94q0-3.54 2.01-4.98 2.01-1.44 6.62-1.44 1.67 0 2.85.3 1.17.3 2 1.11.84.8 1.34 2.1.5 1.31.84 3.31.8 6.23 1.77 12.85.97 6.62 2.04 13.31.4 3.01 3.14 3.01.74 0 2.45-.17 1.7-.16 4.04-.4 2.34-.23 5.05-.5t5.42-.5q2.71-.24 5.15-.4 2.44-.17 4.32-.17 1.47 0 2.34.57.87.57 1.37 1.47.5.9.67 2.01.17 1.1.17 2.24 0 1-.37 2.07-.37 1.07-1.01 1.91-.63.83-1.57 1.37-.93.53-2.14.53-5.82 0-11.74.37t-11.81.97q-3.01.4-3.01 3.01 0 .2.07.5.07.31.07.51l1.5 10.9q.71 5.08 1.21 9.06.5 3.98.8 6.63.3 2.64.3 3.51 0 2.41-.47 4.05-.47 1.63-1.54 2.67t-2.84 1.47q-1.77.44-4.45.44-2.54 0-3.74-1.21-1.21-1.2-1.34-3.68-.4-7.89-1.27-15.88-.87-8-2.01-15.96-.6-2.87-3.01-2.87-.2 0-.47.06-.26.07-.47.07-4.14.94-7.82 1.87-3.68.94-6.89 2.01-1.81.6-3.21.84-1.41.23-2.55.23-1.53 0-2.27-1.37t-.74-3.45q0-.73.14-1.7.13-.97.5-1.94t1.07-1.81q.7-.83 1.91-1.37 2.81-1.14 7.49-2.37 4.68-1.24 10.57-2.31 1.34-.34 2.11-1.11.76-.76.76-2.3v-.71q0-.36-.13-.77-1.07-6.15-2.04-11.2-.97-5.05-1.67-8.66-.7-3.62-1.11-5.69-.4-2.07-.4-2.41"></path><rect width="72.79" height="90.11" x="-36.4" y="-45.05" fill="none" rx="0" ry="0" transform="translate(273.47 58.08)"></rect><path fill="#facc15" d="M322.135 38.14q4.48 0 9.23 1.17t8.7 3.01q3.95 1.84 6.49 4.12 2.54 2.27 2.54 4.41 0 1.07-.94 2.38-.93 1.3-2.27 2.47-1.34 1.17-2.91 1.94t-2.78.77q-1.6 0-3.57-1.34-1.98-1.33-4.35-2.97-2.38-1.64-5.19-2.98-2.81-1.34-6.08-1.34-2.15 0-3.52 1.04t-1.37 2.91q0 1.67 1.61 3.38 1.6 1.7 4.25 3.51 2.64 1.8 5.98 3.81 3.35 2.01 6.86 4.28 3.51 2.28 6.86 4.95 3.34 2.68 5.98 5.82 2.65 3.15 4.25 6.86 1.61 3.71 1.61 8.06 0 3.75-1.34 6.82-1.34 3.08-3.81 5.29-2.48 2.21-5.89 3.41-3.41 1.2-7.49 1.2-5.15 0-9.5-1.57t-7.49-4.31q-3.15-2.75-4.92-6.56-1.77-3.81-1.77-8.36 0-5.89 2.1-8.56 2.11-2.68 6.66-2.68 2.81 0 4.48 1.07 1.67 1.07 1.67 2.61 0 .8-.26 1.64-.27.84-.57 1.74-.3.9-.54 1.91-.23 1-.23 2 0 1.74.8 3.35.8 1.6 2.17 2.84 1.38 1.24 3.18 1.97 1.81.74 3.81.74 5.36 0 5.36-4.42 0-3.47-2.75-6.59-2.74-3.11-6.89-6.08-4.14-2.98-8.93-5.99-4.78-3.01-8.93-6.29-4.14-3.28-6.89-6.99-2.74-3.71-2.74-8.06 0-3.61 1.51-6.62 1.5-3.01 4.11-5.19 2.61-2.17 6.12-3.37 3.51-1.21 7.59-1.21"></path><rect width="50.71" height="72.98" x="-25.36" y="-36.49" fill="none" rx="0" ry="0" transform="translate(328.66 75.13)"></rect><path fill="#facc15" d="M354.045 31.79q0-7.23 9.37-7.23 1.6 0 2.81.87 1.2.87 1.4 2.41.6 4.08 1.07 8.09.47 4.02.9 9 .44 4.99.87 11.51.44 6.52.97 15.55 0 .94.3 1.34.31.4.71.4.6 0 1.2-1.2 2.28-5.02 5.09-9 2.8-3.98 6.02-6.76 3.21-2.77 6.79-4.21 3.57-1.44 7.32-1.44 4.95 0 8.96 2.81 4.02 2.81 6.83 7.96 2.81 5.15 4.35 12.48 1.53 7.32 1.53 16.35 0 2.48-.36 4.05-.37 1.57-1.24 2.51-.87.93-2.41 1.3t-3.81.37q-3.15 0-4.52-1.21-1.37-1.2-1.37-3.74 0-6.29-.84-11.88-.83-5.58-2.3-9.8-1.47-4.21-3.45-6.68-1.97-2.48-4.25-2.48-5.15 0-10.26 8.36-5.12 8.36-10.67 25.22-.54 1.54-1.21 2.54-.67 1.01-1.57 1.61-.9.6-2.17.84-1.28.23-3.01.23-3.55 0-5.05-1.34-1.51-1.34-1.64-4.41-.41-11.64-1.44-22.25-1.04-10.6-2.14-19.19-1.11-8.6-1.94-14.59-.84-5.99-.84-8.39"></path><rect width="66.49" height="77.4" x="-33.24" y="-38.7" fill="none" rx="0" ry="0" transform="translate(387.79 63.76)"></rect><path fill="#facc15" d="M443.555 72.53q0 8.96 2.74 13.84 2.74 4.89 7.96 4.89 3.28 0 6.05-1.94 2.78-1.94 4.79-5.42 2-3.48 3.11-8.26 1.1-4.79 1.1-10.41 0-3.41-.27-5.92-.26-2.5-.57-4.48-.3-1.97-.56-3.51-.27-1.54-.27-2.94 0-2.14 1.8-3.11 1.81-.97 5.76-.97 5.01 0 7.79 2.27 2.78 2.27 2.78 6.62 0 11.84-2.31 21.28-2.31 9.43-6.62 16.02-4.32 6.59-10.47 10.13-6.16 3.55-13.78 3.55-5.42 0-10-2.24-4.59-2.25-7.9-6.29-3.31-4.05-5.18-9.64-1.87-5.58-1.87-12.27 0-2.54.13-5.42t.4-6.19q.27-3.31.7-7.19.44-3.88.97-8.43.2-1.94 1.84-3.11 1.64-1.17 4.18-1.17 2.28 0 4.28.47 2.01.47 3.45 1.27 1.44.8 2.27 1.87.84 1.07.84 2.28 0 1.2-.5 3.78-.5 2.57-1.07 5.89-.57 3.31-1.07 7.15-.5 3.85-.5 7.6"></path><rect width="58.13" height="61.95" x="-29.07" y="-30.98" fill="none" rx="0" ry="0" transform="translate(457.2 73.7)"></rect><path fill="#facc15" d="M496.465 80.75q-1.27-15.65-2.91-31.1-1.64-15.46-4.78-30.84-.14-.54-.14-.97V17q0-1.54.64-2.67.63-1.14 1.7-1.91 1.07-.77 2.45-1.17 1.37-.4 2.91-.4 4.08 0 5.61 3.81.67 1.94 1.38 5.55.7 3.62 1.47 8.37.77 4.75 1.5 10.4.74 5.65 1.41 11.6.2 1.68 1.07 1.68.73 0 1.54-1.01 9.76-12.84 23.14-12.84 5.02 0 9.37 2.21 4.35 2.2 7.56 6.02 3.21 3.81 5.05 9.03 1.84 5.22 1.84 11.24 0 5.62-1.78 10.43-1.77 4.82-4.91 8.3-3.15 3.48-7.46 5.45-4.32 1.97-9.4 1.97-6.29 0-12.31-2.44-6.02-2.44-11.37-6.59-.6-.53-1.27-.53-.87 0-1.61.93-1.07 1.21-2.27 1.57-1.21.37-2.95.37-5.28 0-5.48-5.62m34.65-29.9q-2.67 0-5.32 1.24-2.64 1.24-4.98 3.51-2.34 2.28-4.32 5.45-1.97 3.18-3.31 7.06-.13.2-.2.6-.06.4-.06.67 0 1.14.8 1.74 2.41 2.07 4.98 3.88 2.58 1.81 5.12 3.14 2.54 1.34 5.02 2.11 2.47.77 4.61.77 4.82 0 7.33-2.81t2.51-8.16q0-4.15-.94-7.66t-2.54-6.09q-1.61-2.57-3.85-4.01t-4.85-1.44"></path><rect width="68.64" height="82.21" x="-34.32" y="-41.1" fill="none" rx="0" ry="0" transform="translate(523.46 52.45)"></rect><path fill="#fff" d="M102.755 163.75q0 1.6-.65 3.01-.65 1.41-1.73 2.46-1.09 1.05-2.53 1.66-1.44.6-3.04.6h-2.27q-1.6 0-3.04-.6-1.44-.61-2.53-1.66-1.08-1.05-1.73-2.46-.65-1.41-.65-3.01v-1.25l2.83-.47v1.72q0 1.05.43 1.97.43.91 1.16 1.6.72.69 1.68 1.09.95.39 2.01.39h1.97q1.06 0 2-.39.95-.4 1.67-1.09.73-.69 1.16-1.6.43-.92.43-1.97v-.95q0-1.62-.64-2.7t-1.69-1.83q-1.06-.76-2.39-1.29t-2.73-1.05q-1.41-.53-2.74-1.17-1.33-.64-2.38-1.59-1.06-.96-1.69-2.34-.64-1.39-.64-3.41v-.59q0-1.6.6-3.01.61-1.41 1.66-2.46 1.06-1.06 2.47-1.66 1.42-.6 3.02-.6h2.03q1.6 0 3.01.6 1.4.6 2.46 1.66 1.05 1.05 1.66 2.46.6 1.41.6 3.01v.81l-2.83.46v-1.27q0-1.05-.4-1.97-.39-.91-1.08-1.59-.68-.68-1.59-1.08-.91-.39-1.97-.39h-1.75q-1.06 0-1.97.39-.91.4-1.6 1.08-.7.68-1.09 1.59-.4.92-.4 1.97v.59q0 1.52.64 2.55.64 1.03 1.69 1.77 1.06.74 2.39 1.28l2.73 1.09q1.41.56 2.74 1.23 1.33.67 2.38 1.65 1.06.98 1.69 2.39.64 1.4.64 3.42Z"></path><rect width="18.17" height="32.38" x="-9.09" y="-16.19" fill="none" rx="0" ry="0" transform="translate(94.17 155.79)"></rect><path fill="#fff" d="M122.975 164.87q0 1.36-.52 2.57-.52 1.21-1.42 2.11-.9.9-2.11 1.42-1.21.51-2.57.51h-.68q-1.52 0-2.81-.61-1.3-.62-2.22-1.72v10.9h-2.7v-31.51h.9l1.47 2.29q.92-1.25 2.32-1.99 1.39-.74 3.04-.74h.68q1.36 0 2.57.52 1.21.52 2.11 1.42.9.9 1.42 2.11.52 1.21.52 2.57zm-2.71-10.31q0-.81-.3-1.52-.31-.72-.84-1.24-.53-.53-1.24-.84-.72-.31-1.53-.31h-1.8q-.81 0-1.53.31-.71.31-1.24.84-.53.52-.83 1.24-.31.71-.31 1.52v10.46q0 .82.31 1.53.3.71.83 1.24t1.24.84q.72.3 1.53.3h1.8q.81 0 1.53-.3.71-.31 1.24-.84t.84-1.24q.3-.71.3-1.53Z"></path><rect width="15.03" height="31.95" x="-7.51" y="-15.97" fill="none" rx="0" ry="0" transform="translate(115.96 164.57)"></rect><path fill="#fff" d="M143.405 164.87q0 1.36-.52 2.57-.51 1.21-1.41 2.11-.9.9-2.11 1.42-1.21.51-2.57.51h-1.81q-1.36 0-2.57-.51-1.2-.52-2.11-1.42-.9-.9-1.41-2.11-.52-1.21-.52-2.57v-10.15q0-1.36.52-2.57.51-1.21 1.41-2.11.91-.9 2.11-1.42 1.21-.52 2.57-.52h1.81q1.36 0 2.57.52 1.21.52 2.11 1.42.9.9 1.41 2.11.52 1.21.52 2.57v5.29h-12.33v5.01q0 .82.31 1.53.31.71.84 1.24.52.53 1.24.84.71.3 1.52.3h1.81q.81 0 1.52-.3.72-.31 1.24-.84.53-.53.84-1.24.31-.71.31-1.53v-1.49l2.7.44zm-2.7-10.31q0-.81-.31-1.52-.31-.72-.84-1.24-.52-.53-1.24-.84-.71-.31-1.52-.31h-1.81q-.81 0-1.52.31-.72.31-1.24.84-.53.52-.84 1.24-.31.71-.31 1.52v3.34h9.63Z"></path><rect width="15.03" height="23.38" x="-7.51" y="-11.69" fill="none" rx="0" ry="0" transform="translate(136.39 160.29)"></rect><path fill="#fff" d="M161.135 171.04v-16.48q0-.81-.31-1.52-.3-.72-.83-1.24-.53-.53-1.24-.84-.72-.31-1.53-.31h-1.8q-.81 0-1.53.31-.71.31-1.24.84-.53.52-.83 1.24-.31.71-.31 1.52v16.48h-2.7v-22.5h.9l1.47 2.29q.92-1.25 2.32-1.99 1.39-.74 3.04-.74h.68q1.36 0 2.57.52 1.21.52 2.11 1.42.9.9 1.42 2.11.51 1.21.51 2.57v16.32Z"></path><rect width="15.02" height="22.94" x="-7.51" y="-11.47" fill="none" rx="0" ry="0" transform="translate(156.82 160.07)"></rect><path fill="#fff" d="m183.375 171.04-1.5-2.28q-.92 1.25-2.3 1.99-1.39.73-3.04.73h-.68q-1.36 0-2.57-.51-1.21-.52-2.11-1.42-.9-.9-1.41-2.11-.52-1.21-.52-2.57v-10.15q0-1.36.52-2.57.51-1.21 1.41-2.11.9-.9 2.11-1.42 1.21-.52 2.57-.52h.68q1.52 0 2.82.62 1.29.61 2.22 1.71v-10.9h2.7v31.51Zm-1.8-16.48q0-.81-.31-1.52-.31-.72-.84-1.24-.52-.53-1.24-.84-.71-.31-1.52-.31h-1.81q-.81 0-1.52.31-.72.31-1.25.84-.52.52-.83 1.24-.31.71-.31 1.52v10.46q0 .82.31 1.53.31.71.83 1.24.53.53 1.25.84.71.3 1.52.3h1.81q.81 0 1.52-.3.72-.31 1.24-.84.53-.53.84-1.24.31-.71.31-1.53Z"></path><rect width="15.03" height="31.95" x="-7.51" y="-15.97" fill="none" rx="0" ry="0" transform="translate(177.26 156)"></rect><path fill="#fff" d="M200.465 171.04v-31.51h2.84v28.81h12.06v2.7Z"></path><rect width="14.9" height="31.51" x="-7.45" y="-15.76" fill="none" rx="0" ry="0" transform="translate(208.41 155.78)"></rect><path fill="#fff" d="M233.995 164.87q0 1.36-.51 2.57-.52 1.21-1.42 2.11-.9.9-2.11 1.42-1.21.51-2.57.51h-1.8q-1.36 0-2.57-.51-1.21-.52-2.11-1.42-.9-.9-1.42-2.11-.52-1.21-.52-2.57v-10.15q0-1.36.52-2.57.52-1.21 1.42-2.11.9-.9 2.11-1.42 1.21-.52 2.57-.52h1.8q1.36 0 2.57.52 1.21.52 2.11 1.42.9.9 1.42 2.11.51 1.21.51 2.57v5.29h-12.32v5.01q0 .82.3 1.53.31.71.84 1.24t1.24.84q.71.3 1.53.3h1.8q.81 0 1.53-.3.71-.31 1.24-.84t.83-1.24q.31-.71.31-1.53v-1.49l2.7.44zm-2.7-10.31q0-.81-.31-1.52-.3-.72-.83-1.24-.53-.53-1.24-.84-.72-.31-1.53-.31h-1.8q-.82 0-1.53.31-.71.31-1.24.84-.53.52-.84 1.24-.3.71-.3 1.52v3.34h9.62Z"></path><rect width="15.03" height="23.38" x="-7.51" y="-11.69" fill="none" rx="0" ry="0" transform="translate(226.98 160.29)"></rect><path fill="#fff" d="M254.875 165.33q0 1.36-.55 2.49-.55 1.14-1.5 1.95-.94.81-2.18 1.26-1.24.45-2.61.45h-1.8q-1.36 0-2.6-.51-1.24-.52-2.18-1.42-.93-.9-1.49-2.11-.56-1.21-.56-2.57v-.9l2.7-.44v1.49q0 .82.34 1.53.34.71.91 1.24.57.53 1.32.84.75.3 1.56.3h1.8q.82 0 1.56-.24.75-.24 1.33-.69.59-.45.93-1.09.34-.63.34-1.45 0-1.21-.53-1.97-.53-.77-1.4-1.29-.86-.52-1.97-.86-1.11-.34-2.28-.68-1.16-.34-2.27-.78t-1.98-1.15q-.87-.72-1.39-1.79-.53-1.08-.53-2.68 0-1.37.53-2.5.52-1.13 1.42-1.94.9-.81 2.1-1.27 1.2-.45 2.56-.45h1.58q1.37 0 2.57.52 1.21.52 2.11 1.42.9.9 1.42 2.11.52 1.21.52 2.57v.09l-2.71.44v-.69q0-.81-.3-1.52-.31-.72-.84-1.24-.53-.53-1.24-.84-.71-.31-1.53-.31h-1.58q-.81 0-1.53.24-.71.25-1.24.7-.52.45-.83 1.08-.31.64-.31 1.45 0 1.17.53 1.91.53.73 1.39 1.24.87.5 1.98.84 1.11.34 2.26.71 1.16.36 2.27.82 1.11.46 1.97 1.19.87.72 1.4 1.81.53 1.09.53 2.69"></path><rect width="15.47" height="23.38" x="-7.74" y="-11.69" fill="none" rx="0" ry="0" transform="translate(247.64 160.29)"></rect><path fill="#fff" d="M275.525 165.33q0 1.36-.55 2.49-.55 1.14-1.49 1.95-.95.81-2.19 1.26-1.24.45-2.6.45h-1.8q-1.37 0-2.61-.51-1.24-.52-2.17-1.42-.94-.9-1.5-2.11t-.56-2.57v-.9l2.71-.44v1.49q0 .82.34 1.53.34.71.91 1.24.57.53 1.32.84.74.3 1.56.3h1.8q.81 0 1.56-.24t1.33-.69q.58-.45.92-1.09.34-.63.34-1.45 0-1.21-.53-1.97-.52-.77-1.39-1.29-.87-.52-1.98-.86-1.11-.34-2.27-.68-1.17-.34-2.28-.78-1.11-.44-1.98-1.15-.86-.72-1.39-1.79-.53-1.08-.53-2.68 0-1.37.53-2.5t1.43-1.94q.9-.81 2.1-1.27 1.19-.45 2.56-.45h1.58q1.36 0 2.57.52 1.21.52 2.11 1.42.9.9 1.42 2.11.51 1.21.51 2.57v.09l-2.7.44v-.69q0-.81-.31-1.52-.31-.72-.83-1.24-.53-.53-1.24-.84-.72-.31-1.53-.31h-1.58q-.82 0-1.53.24-.72.25-1.24.7-.53.45-.84 1.08-.31.64-.31 1.45 0 1.17.53 1.91.53.73 1.4 1.24.87.5 1.97.84 1.11.34 2.27.71 1.15.36 2.26.82 1.11.46 1.98 1.19.87.72 1.39 1.81.53 1.09.53 2.69"></path><rect width="15.47" height="23.38" x="-7.74" y="-11.69" fill="none" rx="0" ry="0" transform="translate(268.29 160.29)"></rect><path fill="#fff" d="M282.295 177.35h-1.14v-9.69h3.38Z"></path><rect width="3.38" height="9.69" x="-1.69" y="-4.84" fill="none" rx="0" ry="0" transform="translate(283.35 173)"></rect><path fill="#fff" d="M301.635 171.04v-31.51h17.73v2.71h-14.9v11.71h12.06v2.7h-12.06v11.69h14.9v2.7Z"></path><rect width="17.73" height="31.51" x="-8.87" y="-15.76" fill="none" rx="0" ry="0" transform="translate(311 155.78)"></rect><path fill="#fff" d="M336.195 171.04v-16.48q0-.81-.31-1.52-.31-.72-.83-1.24-.53-.53-1.25-.84-.71-.31-1.52-.31h-1.8q-.82 0-1.53.31-.72.31-1.24.84-.53.52-.84 1.24-.31.71-.31 1.52v16.48h-2.7v-22.5h.9l1.47 2.29q.93-1.25 2.32-1.99 1.4-.74 3.05-.74h.68q1.36 0 2.57.52 1.21.52 2.11 1.42.9.9 1.41 2.11.52 1.21.52 2.57v16.32Z"></path><rect width="15.03" height="22.94" x="-7.51" y="-11.47" fill="none" rx="0" ry="0" transform="translate(331.88 160.07)"></rect><path fill="#fff" d="M344.985 143.14v-3.61h3.14v3.61Zm2.92 30.3q0 1.36-.52 2.56-.51 1.2-1.41 2.1-.91.9-2.11 1.43-1.21.52-2.57.52v-2.57q.81 0 1.52-.31.72-.3 1.24-.83.53-.53.84-1.24.31-.72.31-1.53v-25.03h2.7z"></path><rect width="6.83" height="40.52" x="-3.42" y="-20.26" fill="none" rx="0" ry="0" transform="translate(345.21 160.29)"></rect><path fill="#fff" d="M369.235 164.87q0 1.36-.51 2.57-.52 1.21-1.42 2.11-.9.9-2.11 1.42-1.21.51-2.57.51h-1.8q-1.36 0-2.57-.51-1.21-.52-2.11-1.42-.9-.9-1.42-2.11-.51-1.21-.51-2.57v-10.15q0-1.36.51-2.57.52-1.21 1.42-2.11.9-.9 2.11-1.42 1.21-.52 2.57-.52h1.8q1.36 0 2.57.52 1.21.52 2.11 1.42.9.9 1.42 2.11.51 1.21.51 2.57zm-2.7-10.31q0-.81-.31-1.52-.3-.72-.83-1.24-.53-.53-1.24-.84-.72-.31-1.53-.31h-1.8q-.81 0-1.53.31-.71.31-1.24.84-.53.52-.83 1.24-.31.71-.31 1.52v10.46q0 .82.31 1.53.3.71.83 1.24t1.24.84q.72.3 1.53.3h1.8q.81 0 1.53-.3.71-.31 1.24-.84t.83-1.24q.31-.71.31-1.53Z"></path><rect width="15.02" height="23.38" x="-7.51" y="-11.69" fill="none" rx="0" ry="0" transform="translate(362.23 160.29)"></rect><path fill="#fff" d="M378.295 180.05h-2.62l4-10.94-7.29-20.57h2.7l5.87 17.05.08 1.17.09-1.17 5.85-17.05h2.7Z"></path><rect width="17.29" height="31.51" x="-8.64" y="-15.76" fill="none" rx="0" ry="0" transform="translate(381.53 164.8)"></rect><path fill="#fff" d="M423.025 171.04v-21.6l-.19 1.34-7.32 20.26h-1.49l-7.39-20.26-.17-1.34v21.6h-2.84v-31.51h1.47l9.56 25.84.09 1.17.09-1.17 9.53-25.84h1.5v31.51Z"></path><rect width="22.24" height="31.51" x="-11.12" y="-15.76" fill="none" rx="0" ry="0" transform="translate(415.25 155.78)"></rect><path fill="#fff" d="M446.735 164.87q0 1.36-.51 2.57-.52 1.21-1.42 2.11-.9.9-2.11 1.42-1.21.51-2.57.51h-1.8q-1.37 0-2.57-.51-1.21-.52-2.11-1.42-.9-.9-1.42-2.11-.52-1.21-.52-2.57v-10.15q0-1.36.52-2.57.52-1.21 1.42-2.11.9-.9 2.11-1.42 1.2-.52 2.57-.52h1.8q1.36 0 2.57.52 1.21.52 2.11 1.42.9.9 1.42 2.11.51 1.21.51 2.57zm-2.7-10.31q0-.81-.31-1.52-.31-.72-.83-1.24-.53-.53-1.24-.84-.72-.31-1.53-.31h-1.8q-.82 0-1.53.31-.71.31-1.24.84-.53.52-.84 1.24-.3.71-.3 1.52v10.46q0 .82.3 1.53.31.71.84 1.24t1.24.84q.71.3 1.53.3h1.8q.81 0 1.53-.3.71-.31 1.24-.84.52-.53.83-1.24.31-.71.31-1.53Z"></path><rect width="15.03" height="23.38" x="-7.51" y="-11.69" fill="none" rx="0" ry="0" transform="translate(439.72 160.29)"></rect><path fill="#fff" d="M458.755 151.11q-.81 0-1.53.31-.71.31-1.24.84-.52.52-.83 1.24-.31.71-.31 1.53v16.01h-2.7v-22.5h.9l1.47 2.29q.92-1.25 2.32-1.99 1.39-.74 3.04-.74h1.58v3.01Z"></path><rect width="9.31" height="22.94" x="-4.66" y="-11.47" fill="none" rx="0" ry="0" transform="translate(457.3 160.07)"></rect><path fill="#fff" d="M480.095 164.87q0 1.36-.52 2.57-.52 1.21-1.42 2.11-.9.9-2.11 1.42-1.2.51-2.57.51h-1.8q-1.36 0-2.57-.51-1.21-.52-2.11-1.42-.9-.9-1.42-2.11-.51-1.21-.51-2.57v-10.15q0-1.36.51-2.57.52-1.21 1.42-2.11.9-.9 2.11-1.42 1.21-.52 2.57-.52h1.8q1.37 0 2.57.52 1.21.52 2.11 1.42.9.9 1.42 2.11.52 1.21.52 2.57v5.29h-12.33v5.01q0 .82.31 1.53.31.71.83 1.24.53.53 1.24.84.72.3 1.53.3h1.8q.82 0 1.53-.3.71-.31 1.24-.84t.84-1.24q.3-.71.3-1.53v-1.49l2.71.44zm-2.71-10.31q0-.81-.3-1.52-.31-.72-.84-1.24-.53-.53-1.24-.84-.71-.31-1.53-.31h-1.8q-.81 0-1.53.31-.71.31-1.24.84-.52.52-.83 1.24-.31.71-.31 1.52v3.34h9.62Z"></path><rect width="15.03" height="23.38" x="-7.51" y="-11.69" fill="none" rx="0" ry="0" transform="translate(473.08 160.29)"></rect></svg></svg>