<svg xmlns="http://www.w3.org/2000/svg" version="1.1" xmlns:xlink="http://www.w3.org/1999/xlink" width="1500" height="200" viewBox="0 0 1500 200"><svg xml:space="preserve" width="1500" height="200" data-version="2" data-id="lg_gjXMAzD0w6ltprFhTm" viewBox="0 0 557 200" x="0" y="0"><rect width="100%" height="100%" fill="transparent"></rect><path fill="#f6751f" d="M35.175 41.655q-17.27 0-17.27 28.7 0 28.71 17.53 28.71 6.6 0 10.86-4.83 4.25-4.83 5.9-12.45l2.29.26q-1.91 9.27-7.62 14.92-5.72 5.65-14.48 5.65-13.08 0-19.94-8.82-6.86-8.83-6.86-23.18t6.92-22.93q6.93-8.57 20.64-8.57 8.77 0 14.23 3.81 5.46 3.81 5.46 11.56 0 3.81-2.48 6.41-2.48 2.61-5.84 2.61-3.37 0-5.46-1.97-2.1-1.97-2.1-4.83 0-2.86 1.65-4.82 1.65-1.97 4.45-1.97 4.32 0 5.08 3.3.13 1.14 1.2 1.14 1.08 0 1.08-1.14 0-4.32-3.87-7.94t-11.37-3.62"></path><rect width="48.9" height="63.5" x="-24.45" y="-31.75" fill="none" rx="0" ry="0" transform="translate(30.54 71.36)"></rect><path fill="#f6751f" d="M107.065 48.765q0-3.3-2.42-5.46-2.41-2.16-6.47-2.16-4.07 0-7.56 3.24-3.49 3.24-5.4 8.45-3.43 10.03-3.43 21.71v23.63h9.27v1.9h-28.95v-1.9h8.38v-54.61h-9.02v-1.91h2.67q10.16 0 17.91-1.65v13.21h.76q5.33-14.1 16-14.1 4.7 0 7.68 2.99 2.99 2.98 2.99 7.36 0 4.38-2.48 6.99-2.47 2.6-5.84 2.6-3.36 0-5.46-1.97t-2.1-4.82q0-2.86 1.66-4.83 1.65-1.97 4.44-1.97 4.32 0 5.08 3.3.25 1.15 1.27 1.15t1.02-1.15"></path><rect width="48.01" height="60.96" x="-24" y="-30.48" fill="none" rx="0" ry="0" transform="translate(85.97 70.1)"></rect><path fill="#f6751f" d="M139.195 39.115q15.11 0 20 6.8 4.89 6.79 4.89 23.68v22.48q0 5.21 2.29 5.21 4.69 0 6.22-14.61l2.28.26q-1.9 19.68-12.82 19.68-3.18 0-4.89-2.28-1.72-2.29-2.16-5.02-.45-2.73-.45-6.8h-.76q-1.65 6.74-6.73 10.42-5.08 3.68-13.02 3.68-7.93 0-13.9-4.25-5.97-4.26-5.97-12.26 0-5.97 3.43-9.9 7.11-8.13 32.26-8.13h2.92v-6.23q0-10.03-3.43-15.11t-11.88-5.08q-8.44 0-12.38 3.43-3.94 3.43-3.94 7.11 0 1.15 1.08 1.15t1.21-1.15q.76-3.3 5.08-3.3 2.79 0 4.44 1.97 1.66 1.97 1.66 4.83 0 2.85-2.1 4.82-2.1 1.97-5.46 1.97-3.37 0-5.84-2.6-2.48-2.61-2.48-6.42 0-7.11 5.97-10.73t14.48-3.62m13.59 39.75v-8.51h-4q-2.73 0-6.48.38-3.75.39-7.68 1.91-8.13 2.92-8.13 12.95 0 6.1 2.92 9.78 2.92 3.69 9.4 3.69 6.47 0 10.22-5.85 3.75-5.84 3.75-14.35"></path><rect width="60.7" height="63.5" x="-30.35" y="-31.75" fill="none" rx="0" ry="0" transform="translate(145.03 71.36)"></rect><path fill="#f6751f" d="m203.455 10.165 2.29-.13q4.19 0 7.62 2.73 3.42 2.73 3.42 7.37 0 4.63-2.73 7.11-2.73 2.47-6.73 2.47t-6.54-3.11q-2.54-3.11-2.54-6.6 0-3.49.76-5.91-5.33 3.18-5.33 10.29 0 4.44 3.11 9.27 3.11 4.83 3.49 8.13h11.82v1.9h-11.69v54.61h8.38v1.91h-28.06v-1.91h8.38v-54.61h-9.02v-1.9h9.02v-8.64q0-18.41 11.3-22.22 2.67-4.32 7.56-6.54 4.89-2.23 10.35-2.23 9.02 0 15.11 6.35 6.1 6.35 6.1 20.83v12.45h15.36v1.9h-15.36v43.18q0 7.37.51 9.91.5 2.54 3.3 2.54 2.79 0 5.78-3.68 2.98-3.69 4.89-8l2.03.76q-2.42 6.09-6.48 10.22-4.06 4.13-9.4 4.13-7.49 0-9.71-4.51-2.23-4.51-2.23-14.16v-40.39h-9.01v-1.9h2.28q14.23 0 14.23-19.94 0-8.51-5.27-13.02t-12.13-4.51q-10.16 0-14.86 5.85m11.05 10.03v-1.78q0-1.78-2.61-3.94-2.6-2.16-5.27-2.16-2.66 0-4.82.64-1.27 2.92-1.27 6.35 0 3.43 2.09 5.84 2.1 2.41 4.96 2.41 2.85 0 4.89-1.9 2.03-1.91 2.03-5.46"></path><rect width="75.95" height="100.59" x="-37.98" y="-50.3" fill="none" rx="0" ry="0" transform="translate(218.56 52.95)"></rect><path fill="#f6751f" d="M287.405 39.115q19.3 0 19.3 13.08 0 3.81-2.48 6.42-2.47 2.6-5.84 2.6-3.36 0-5.46-1.97-2.09-1.97-2.09-4.82 0-2.86 1.65-4.83 1.65-1.97 4.44-1.97 4.32 0 5.08 3.3.13 1.15 1.21 1.15t1.08-1.15q0-3.55-3.5-6.41-3.49-2.86-10.66-2.86-7.18 0-11.81 2.67-4.64 2.67-4.64 7.43t3.68 7.68q3.69 2.92 8.89 4.83 5.21 1.9 10.48 4 5.27 2.09 8.95 6.03 3.69 3.94 3.69 9.53 0 9.52-6.8 14.16-6.79 4.63-16.82 4.63-10.04 0-16.13-3.55-6.1-3.56-6.1-10.8 0-3.81 2.48-6.41 2.47-2.61 5.84-2.61 3.36 0 5.46 1.97t2.1 4.83q0 2.86-1.66 4.82-1.65 1.97-4.44 1.97-4.32 0-5.08-3.3-.13-1.14-1.21-1.14t-1.08 1.14q0 3.81 4.26 7.18 4.25 3.36 12.63 3.36 18.42 0 18.42-11.94 0-7.36-12.57-11.93-5.34-1.91-10.54-4-5.21-2.1-8.89-6.04-3.69-3.93-3.69-9.52 0-8.13 6.42-12.83 6.41-4.7 15.43-4.7"></path><rect width="45.85" height="63.5" x="-22.93" y="-31.75" fill="none" rx="0" ry="0" transform="translate(286.95 71.36)"></rect><path fill="#f6751f" d="M331.855 19.555h-9.27v-2.03h33.02v2.03h-10.55v36.83h34.93v-36.83h-9.27v-2.03h33.02v2.03h-10.54v78.49h10.54v2.03h-33.02v-2.03h9.27v-39.62h-34.93v39.62h10.55v2.03h-33.02v-2.03h9.27Z"></path><rect width="81.15" height="82.55" x="-40.58" y="-41.27" fill="none" rx="0" ry="0" transform="translate(363.66 59.3)"></rect><path fill="#f6751f" d="M460.625 43.565h-9.01v-1.91h2.66q9.91 0 17.66-1.65v58.17h8.38v1.9h-19.94v-11.05h-.76q-2.16 6.1-7.3 9.85-5.15 3.74-11.5 3.74-10.79 0-14.54-6.48-3.75-6.47-3.75-19.55v-33.02h-9.01v-1.91h2.66q9.91 0 17.66-1.65v34.8q0 11.94.89 14.98.89 3.05 1.9 5.21 2.03 4.07 6.92 4.07 4.89 0 8.51-2.93 3.62-2.92 5.4-8 3.17-9.01 3.17-21.59Z"></path><rect width="66.8" height="62.61" x="-33.4" y="-31.3" fill="none" rx="0" ry="0" transform="translate(447.42 71.81)"></rect><path fill="#f6751f" d="M509.655 53.215h.76q2.28-6.48 6.79-10.29 4.51-3.81 10.73-3.81 11.43 0 16.96 8.96 5.52 8.95 5.52 22.66 0 13.72-5.71 22.8-5.72 9.08-17.53 9.08-11.81 0-16.76-10.41h-.76v7.87h-19.69v-1.9h8.38v-83.82h-9.01v-1.91h2.66q9.91 0 17.66-1.65Zm-.26 17.52v4.58q0 9.9 3.81 16.82 3.81 6.93 11.94 6.93 8.76 0 11.05-9.91 1.9-8 1.9-16t-.44-12.19q-.44-4.2-1.65-8.7-1.21-4.51-4.07-7.05-2.85-2.54-6.85-2.54-4 0-7.12 2.86-3.11 2.85-4.88 7.3-3.69 9.01-3.69 17.9"></path><rect width="61.08" height="91.82" x="-30.54" y="-45.91" fill="none" rx="0" ry="0" transform="translate(520.38 57.2)"></rect><path fill="#edf5ff" d="M23.645 184.555q-3.28 0-5.92-1.31t-4.2-3.2l1.35-5.65q1.15 2.29 3.44 4.14 2.3 1.84 5.5 1.84 2.9 0 4.81-1.84 1.9-1.85 1.9-4.55 0-1.97-.94-3.24-.94-1.27-2.13-2-1.19-.74-1.88-1.07l-4.51-2.29q-1.07-.58-2.64-1.6-1.58-1.03-2.77-2.83t-1.19-4.67q0-2.79 1.29-4.96t3.61-3.4q2.31-1.23 5.31-1.23 2.95 0 5.2 1.05 2.25 1.04 3.52 2.15l-1.35 5.65q-1.02-1.72-3.03-3.23-2.01-1.52-4.55-1.52-2.46 0-3.93 1.45-1.48 1.46-1.48 3.59 0 1.64.76 2.7.76 1.07 1.72 1.68.96.62 1.58.95l4.59 2.29q.82.41 2.07 1.15 1.25.73 2.48 1.94 1.22 1.21 2.04 2.95.82 1.74.82 4.2 0 3.16-1.49 5.62-1.5 2.45-4.08 3.85-2.58 1.39-5.9 1.39"></path><rect width="21.59" height="37.86" x="-10.79" y="-18.93" fill="none" rx="0" ry="0" transform="translate(24.82 166.13)"></rect><path fill="#edf5ff" d="M41.515 196.355v-36.87h4.09v3.23q1.68-1.68 3.89-2.62 2.22-.94 4.76-.94 3.4 0 6.16 1.7 2.77 1.7 4.43 4.57 1.66 2.86 1.66 6.35 0 3.48-1.66 6.35-1.66 2.87-4.43 4.57-2.76 1.7-6.16 1.7-2.42 0-4.55-.86t-3.77-2.38v15.2Zm12.16-15.98q2.34 0 4.24-1.17 1.91-1.16 3.04-3.11 1.12-1.95 1.12-4.32 0-2.38-1.12-4.33-1.13-1.94-3.04-3.11-1.9-1.17-4.24-1.17-2.33 0-4.24 1.17-1.9 1.17-3.03 3.11-1.13 1.95-1.13 4.33 0 2.37 1.13 4.32 1.13 1.95 3.03 3.11 1.91 1.17 4.24 1.17"></path><rect width="24.99" height="37.2" x="-12.49" y="-18.6" fill="none" rx="0" ry="0" transform="translate(54.51 178.25)"></rect><path fill="#edf5ff" d="M84.365 184.555q-3.85 0-6.9-1.72-3.05-1.72-4.8-4.69-1.74-2.97-1.74-6.62 0-3.48 1.68-6.33t4.53-4.53q2.85-1.68 6.29-1.68 3.4 0 6.23 1.62 2.82 1.62 4.5 4.37 1.68 2.74 1.68 6.22v1.81h-16.06q-1.06 0-2.17-.09-1.1-.08-2.17-.24.45 3.28 2.97 5.49 2.52 2.21 6 2.21 2.34 0 4.35-1.06 2-1.07 3.23-2.83l1.23 5.04q-1.76 1.43-4.03 2.23-2.28.8-4.82.8m-9.05-14.87q2.21-.37 4.46-.37h8.16q.9 0 1.78.06t1.78.14q-.57-2.86-2.87-4.73-2.29-1.86-5.2-1.86-2.99 0-5.24 1.98-2.26 1.99-2.87 4.78"></path><rect width="24.91" height="25.57" x="-12.46" y="-12.79" fill="none" rx="0" ry="0" transform="translate(83.88 172.27)"></rect><path fill="#edf5ff" d="M101.735 184.065v-24.58h4.1v3.97q1.35-2.17 3.5-3.32 2.16-1.15 4.65-1.15 2.63 0 4.86 1.29 2.23 1.3 3.63 3.73 1.39 2.44 1.39 5.92v14.14h-4.43v-13.52q0-2.91-1.74-5.14-1.74-2.24-4.89-2.24-2.58 0-4.61 1.87-2.03 1.86-2.03 5.39v13.64Z"></path><rect width="22.13" height="25.08" x="-11.06" y="-12.54" fill="none" rx="0" ry="0" transform="translate(113.3 172.03)"></rect><path fill="#edf5ff" d="M141.765 184.395q-3.36 0-6.14-1.7-2.79-1.7-4.45-4.57-1.66-2.87-1.66-6.35 0-3.49 1.66-6.35 1.66-2.87 4.45-4.57 2.78-1.7 6.14-1.7 2.42 0 4.55.86t3.77 2.37v-17.65h4.43v39.33h-4.1v-3.24q-1.64 1.64-3.87 2.6-2.24.97-4.78.97m.58-4.02q2.33 0 4.24-1.17 1.9-1.16 3.03-3.11t1.13-4.32q0-2.38-1.13-4.33-1.13-1.94-3.03-3.11-1.91-1.17-4.24-1.17-2.34 0-4.24 1.17-1.91 1.17-3.03 3.11-1.13 1.95-1.13 4.33 0 2.37 1.13 4.32 1.12 1.95 3.03 3.11 1.9 1.17 4.24 1.17"></path><rect width="25" height="39.66" x="-12.5" y="-19.83" fill="none" rx="0" ry="0" transform="translate(142.51 165.06)"></rect><path fill="#edf5ff" d="M175.895 184.065v-36.88h4.67v32.7h12.79v4.18Z"></path><rect width="17.46" height="36.88" x="-8.73" y="-18.44" fill="none" rx="0" ry="0" transform="translate(185.13 166.13)"></rect><path fill="#edf5ff" d="M209.745 184.555q-3.85 0-6.91-1.72-3.05-1.72-4.79-4.69-1.74-2.97-1.74-6.62 0-3.48 1.68-6.33t4.53-4.53q2.84-1.68 6.28-1.68 3.41 0 6.23 1.62 2.83 1.62 4.51 4.37 1.68 2.74 1.68 6.22v1.81h-16.06q-1.07 0-2.17-.09-1.11-.08-2.17-.24.45 3.28 2.97 5.49 2.52 2.21 6 2.21 2.33 0 4.34-1.06 2.01-1.07 3.24-2.83l1.23 5.04q-1.76 1.43-4.04 2.23-2.27.8-4.81.8m-9.06-14.87q2.21-.37 4.47-.37h8.15q.9 0 1.78.06t1.79.14q-.58-2.86-2.87-4.73-2.3-1.86-5.21-1.86-2.99 0-5.24 1.98-2.25 1.99-2.87 4.78"></path><rect width="24.91" height="25.57" x="-12.46" y="-12.79" fill="none" rx="0" ry="0" transform="translate(209.26 172.27)"></rect><path fill="#edf5ff" d="M233.465 184.555q-1.88 0-4.04-.72-2.15-.71-3.7-2.39l1.23-4.84q1.14 1.93 2.95 3.05 1.8 1.13 3.85 1.13 1.96 0 2.95-.96.98-.96.98-2.36 0-1.6-1.04-2.33-1.05-.74-1.87-1.03l-3.32-1.27q-.9-.37-2.17-1.08-1.27-.72-2.21-2.07-.94-1.35-.94-3.53 0-1.96.94-3.6.94-1.64 2.66-2.6 1.72-.97 4.06-.97 1.84 0 3.85.66t3.4 2.21l-1.23 4.84q-.98-1.81-2.66-2.87-1.68-1.07-3.49-1.07-1.68 0-2.64.95-.96.94-.96 2.17 0 .98.65 1.76.66.78 1.97 1.27l3.32 1.27q.9.33 2.23 1.06 1.33.74 2.36 2.14 1.02 1.39 1.02 3.76 0 3.32-2.31 5.37-2.32 2.05-5.84 2.05"></path><rect width="15.89" height="25.57" x="-7.95" y="-12.79" fill="none" rx="0" ry="0" transform="translate(234.17 172.27)"></rect><path fill="#edf5ff" d="M254.365 184.555q-1.89 0-4.04-.72-2.15-.71-3.71-2.39l1.23-4.84q1.15 1.93 2.95 3.05 1.8 1.13 3.85 1.13 1.97 0 2.95-.96.99-.96.99-2.36 0-1.6-1.05-2.33-1.04-.74-1.86-1.03l-3.32-1.27q-.9-.37-2.17-1.08-1.27-.72-2.22-2.07-.94-1.35-.94-3.53 0-1.96.94-3.6.95-1.64 2.67-2.6 1.72-.97 4.05-.97 1.85 0 3.85.66 2.01.66 3.41 2.21l-1.23 4.84q-.99-1.81-2.67-2.87-1.68-1.07-3.48-1.07-1.68 0-2.64.95-.96.94-.96 2.17 0 .98.65 1.76.66.78 1.97 1.27l3.32 1.27q.9.33 2.23 1.06 1.33.74 2.35 2.14 1.03 1.39 1.03 3.76 0 3.32-2.32 5.37-2.31 2.05-5.83 2.05"></path><rect width="15.9" height="25.57" x="-7.95" y="-12.79" fill="none" rx="0" ry="0" transform="translate(255.06 172.27)"></rect><path fill="#edf5ff" d="M265.215 190.205q1.85-2.29 2.97-5.32 1.13-3.03 1.13-6.97h4.43q0 3.49-.97 6.58-.96 3.09-2.64 5.71Z"></path><rect width="8.53" height="12.29" x="-4.26" y="-6.14" fill="none" rx="0" ry="0" transform="translate(269.98 184.56)"></rect><path fill="#edf5ff" d="M293.485 184.065v-36.88h18.2v4.18h-13.52v7.87h10.65v4.18h-10.65v16.47h13.52v4.18Z"></path><rect width="18.2" height="36.88" x="-9.1" y="-18.44" fill="none" rx="0" ry="0" transform="translate(303.08 166.13)"></rect><path fill="#edf5ff" d="M318.075 184.065v-24.58h4.09v3.97q1.36-2.17 3.51-3.32 2.15-1.15 4.65-1.15 2.62 0 4.85 1.29 2.24 1.3 3.63 3.73 1.39 2.44 1.39 5.92v14.14h-4.42v-13.52q0-2.91-1.74-5.14-1.75-2.24-4.9-2.24-2.58 0-4.61 1.87-2.03 1.86-2.03 5.39v13.64Z"></path><rect width="22.12" height="25.08" x="-11.06" y="-12.54" fill="none" rx="0" ry="0" transform="translate(329.63 172.03)"></rect><path fill="#edf5ff" d="m344.905 196.845-.9-3.81q1.52 0 2.54-.86 1.03-.86 1.03-3.11v-29.58h4.42v29.66q0 3.69-2.03 5.69-2.02 2.01-5.06 2.01m4.88-41.79q-1.23 0-2.09-.86-.86-.86-.86-2.09 0-1.27.86-2.11.86-.84 2.09-.84 1.27 0 2.11.84.84.84.84 2.11 0 1.23-.84 2.09-.84.86-2.11.86"></path><rect width="8.73" height="47.69" x="-4.37" y="-23.84" fill="none" rx="0" ry="0" transform="translate(348.87 173.5)"></rect><path fill="#edf5ff" d="M371.095 184.555q-3.57 0-6.52-1.72-2.95-1.72-4.69-4.63-1.74-2.91-1.74-6.43 0-3.57 1.74-6.46 1.74-2.88 4.69-4.61 2.95-1.72 6.52-1.72 3.6 0 6.53 1.72 2.93 1.73 4.67 4.61 1.74 2.89 1.74 6.46 0 3.52-1.74 6.43-1.74 2.91-4.67 4.63-2.93 1.72-6.53 1.72m0-4.18q2.37 0 4.3-1.17 1.92-1.16 3.07-3.11t1.15-4.32q0-2.38-1.15-4.33-1.15-1.94-3.07-3.11-1.93-1.17-4.3-1.17-2.38 0-4.31 1.17-1.92 1.17-3.07 3.11-1.15 1.95-1.15 4.33 0 2.37 1.15 4.32 1.15 1.95 3.07 3.11 1.93 1.17 4.31 1.17"></path><rect width="25.89" height="25.57" x="-12.95" y="-12.79" fill="none" rx="0" ry="0" transform="translate(371.59 172.27)"></rect><path fill="#edf5ff" d="m388.335 196.355 7.99-15.9-10.4-20.97h5l5.24 10.65q.7 1.43 1.35 2.83.66 1.39 1.31 3.36.7-1.97 1.34-3.38.63-1.42 1.37-2.81l5.32-10.65h4.72l-18.44 36.87Z"></path><rect width="25.65" height="36.87" x="-12.82" y="-18.43" fill="none" rx="0" ry="0" transform="translate(399.25 178.42)"></rect><path fill="#edf5ff" d="M429.515 184.065v-38.11l17.13 23.6 16.8-23.6v38.11h-4.67v-17.05q0-1.68.04-3.66.04-1.99.28-4.53-1.27 2.25-2.47 3.95-1.21 1.7-2.2 3.14l-7.95 11.27-8.19-11.27q-1.02-1.44-2.19-3.14-1.17-1.7-2.48-3.95.25 2.54.29 4.53.04 1.98.04 3.66v17.05Z"></path><rect width="33.93" height="38.11" x="-16.96" y="-19.05" fill="none" rx="0" ry="0" transform="translate(446.98 165.51)"></rect><path fill="#edf5ff" d="M483.765 184.555q-3.57 0-6.52-1.72-2.95-1.72-4.69-4.63-1.74-2.91-1.74-6.43 0-3.57 1.74-6.46 1.74-2.88 4.69-4.61 2.95-1.72 6.52-1.72 3.6 0 6.53 1.72 2.93 1.73 4.68 4.61 1.74 2.89 1.74 6.46 0 3.52-1.74 6.43-1.75 2.91-4.68 4.63-2.93 1.72-6.53 1.72m0-4.18q2.38 0 4.3-1.17 1.93-1.16 3.07-3.11 1.15-1.95 1.15-4.32 0-2.38-1.15-4.33-1.14-1.94-3.07-3.11-1.92-1.17-4.3-1.17t-4.3 1.17q-1.93 1.17-3.08 3.11-1.14 1.95-1.14 4.33 0 2.37 1.14 4.32 1.15 1.95 3.08 3.11 1.92 1.17 4.3 1.17"></path><rect width="25.9" height="25.57" x="-12.95" y="-12.79" fill="none" rx="0" ry="0" transform="translate(484.26 172.27)"></rect><path fill="#edf5ff" d="M502.855 184.065v-24.58h4.1v4.5q1.31-2.17 3.48-3.46t5.16-1.29l1.11 4.42q-.78-.24-1.8-.24-3.44 0-5.53 2.19-2.09 2.19-2.09 6.25v12.21Z"></path><rect width="13.85" height="24.83" x="-6.92" y="-12.41" fill="none" rx="0" ry="0" transform="translate(510.28 172.15)"></rect><path fill="#edf5ff" d="M532.195 184.555q-3.85 0-6.91-1.72-3.05-1.72-4.79-4.69-1.74-2.97-1.74-6.62 0-3.48 1.68-6.33t4.53-4.53q2.84-1.68 6.29-1.68 3.4 0 6.22 1.62 2.83 1.62 4.51 4.37 1.68 2.74 1.68 6.22v1.81h-16.06q-1.07 0-2.17-.09-1.11-.08-2.17-.24.45 3.28 2.97 5.49 2.52 2.21 6 2.21 2.33 0 4.34-1.06 2.01-1.07 3.24-2.83l1.23 5.04q-1.76 1.43-4.04 2.23-2.27.8-4.81.8m-9.06-14.87q2.22-.37 4.47-.37h8.15q.9 0 1.79.06.88.06 1.78.14-.58-2.86-2.87-4.73-2.29-1.86-5.2-1.86-2.99 0-5.25 1.98-2.25 1.99-2.87 4.78"></path><rect width="24.91" height="25.57" x="-12.46" y="-12.79" fill="none" rx="0" ry="0" transform="translate(531.71 172.27)"></rect></svg></svg>